<svg xmlns="http://www.w3.org/2000/svg" viewBox="0 0 40.24 40.24"><defs><style>.cls-1{fill:#fff;}</style></defs><g id="Calque_2" data-name="Calque 2"><g id="Calque_1-2" data-name="Calque 1"><circle class="cls-1" cx="20.19" cy="20.12" r="6.71" transform="translate(-4.08 5.18) rotate(-13.28)"/><path class="cls-1" d="M28.24,0H12A12,12,0,0,0,0,12V28.24a12,12,0,0,0,12,12H28.24a12,12,0,0,0,12-12V12A12,12,0,0,0,28.24,0Zm-8,30.46A10.34,10.34,0,1,1,30.53,20.12,10.34,10.34,0,0,1,20.19,30.46ZM31,11.79a2.41,2.41,0,1,1,2.41-2.41A2.41,2.41,0,0,1,31,11.79Z"/></g></g></svg>