<svg xmlns="http://www.w3.org/2000/svg" viewBox="0 0 35.51 35.55"><defs><style>.cls-1{fill:#fff;}</style></defs><g id="Calque_2" data-name="Calque 2"><g id="Calque_1-2" data-name="Calque 1"><path class="cls-1" d="M35.51,4.21a13.15,13.15,0,0,1-4.19,1.42,8.88,8.88,0,0,0,3.2-5A13.14,13.14,0,0,1,29.9,2.84,6.74,6.74,0,0,0,24.58,0c-4,0-7.27,4-7.27,9a11.34,11.34,0,0,0,.17,2c-6.05-.36-11.41-3.94-15-9.38a10.63,10.63,0,0,0-1,4.53,9.67,9.67,0,0,0,3.23,7.46,6.2,6.2,0,0,1-3.29-1.11v.1c0,4.36,2.52,8,5.83,8.81a6,6,0,0,1-1.91.3A5.24,5.24,0,0,1,4,21.58c.94,3.55,3.62,6.16,6.8,6.25a13,13,0,0,1-9,3.82A11.06,11.06,0,0,1,0,31.53a17.82,17.82,0,0,0,11.17,4c13.39,0,20.72-13.67,20.72-25.52,0-.4,0-.78,0-1.16A16.78,16.78,0,0,0,35.51,4.21Z"/></g></g></svg>