<svg xmlns="http://www.w3.org/2000/svg" viewBox="0 0 47.35 33.18"><defs><style>.cls-1{fill:#fff;}</style></defs><g id="Calque_2" data-name="Calque 2"><g id="Calque_1-2" data-name="Calque 1"><path class="cls-1" d="M46.37,5.19A5.9,5.9,0,0,0,42.2,1C38.49,0,23.67,0,23.67,0S8.85,0,5.15,1A6,6,0,0,0,1,5.19C0,8.9,0,16.59,0,16.59S0,24.32,1,28a5.93,5.93,0,0,0,4.17,4.18c3.74,1,18.52,1,18.52,1s14.82,0,18.53-1A5.93,5.93,0,0,0,46.37,28c1-3.71,1-11.4,1-11.4S47.39,8.9,46.37,5.19ZM18.94,23.7V11.85l11.84,5.93Z"/></g></g></svg>