<svg xmlns="http://www.w3.org/2000/svg" xmlns:xlink="http://www.w3.org/1999/xlink" viewBox="0 0 27 18.56"><defs><style>.cls-1{fill:none;}.cls-2{clip-path:url(#clip-path);}.cls-3{fill:#fff;}</style><clipPath id="clip-path" transform="translate(0 -4.22)"><rect class="cls-1" width="27" height="27"/></clipPath></defs><g id="Calque_2" data-name="Calque 2"><g id="Calque_1-2" data-name="Calque 1"><g class="cls-2"><path class="cls-3" d="M25.85,6c-.73-1.31-1.52-1.54-3.14-1.64S17,4.22,13.5,4.22s-7.59,0-9.21.15S1.88,4.7,1.14,6,0,9.55,0,13.49H0C0,17.44.39,19.69,1.14,21s1.54,1.54,3.15,1.65,5.68.15,9.21.15,7.59-.05,9.21-.15,2.41-.34,3.14-1.65S27,17.44,27,13.51h0C27,9.55,26.62,7.31,25.85,6ZM10.12,18.56V8.44l8.44,5.06Z" transform="translate(0 -4.22)"/></g></g></g></svg>