<svg xmlns="http://www.w3.org/2000/svg" xmlns:xlink="http://www.w3.org/1999/xlink" viewBox="0 0 357.95 199"><defs><style>.cls-1{fill:none;}.cls-2{clip-path:url(#clip-path);}.cls-3{fill:#fff;}</style><clipPath id="clip-path" transform="translate(-0.05)"><rect class="cls-1" width="358" height="199"/></clipPath></defs><g id="Calque_2" data-name="Calque 2"><g id="Calque_1-2" data-name="Calque 1"><g class="cls-2"><path class="cls-3" d="M.05,35.39H14.82A18.44,18.44,0,0,1,33.29,53.82a17.66,17.66,0,0,1-5.43,13,18.78,18.78,0,0,1-3.89,3A11.07,11.07,0,0,1,14.73,87H.05ZM7.44,64.88h7.38A11,11,0,0,0,22.66,46a10.53,10.53,0,0,0-3.58-2.43,10.74,10.74,0,0,0-4.26-.82H7.44Zm0,7.38v7.37h7.38a3.7,3.7,0,0,0,2-.64,3.61,3.61,0,0,0,1.34-1.65,3.74,3.74,0,0,0-2-4.81,3.61,3.61,0,0,0-1.41-.27Z" transform="translate(-0.05)"/><path class="cls-3" d="M43.05,67.43V87H35.66V35.39H50.43A18.45,18.45,0,0,1,68.9,53.82a17.66,17.66,0,0,1-5.39,13,18.56,18.56,0,0,1-6.39,4.24L73.07,87H62.66Zm0-24.67V64.88h7.38A11,11,0,0,0,58.21,46a10.71,10.71,0,0,0-7.78-3.25Z" transform="translate(-0.05)"/><path class="cls-3" d="M80,87H72.6V35.39H80Z" transform="translate(-0.05)"/><path class="cls-3" d="M108.61,35.39h11.1v7.37h-11.1a18.44,18.44,0,1,0,0,36.87h3.7V64.88h-7.39V57.51h14.79V87h-11.1a25.81,25.81,0,1,1,0-51.61Z" transform="translate(-0.05)"/><path class="cls-3" d="M122.31,156.29h-12L137.56,0l27.22,156.29H152.85L137.57,71.06Z" transform="translate(-0.05)"/><path class="cls-3" d="M167.1,35.39a25.81,25.81,0,1,1,0,51.61H156V35.39Zm0,44.24a18.44,18.44,0,1,0,0-36.87h-3.74V79.63Z" transform="translate(-0.05)"/><path class="cls-3" d="M229,35.39v7.37H203.12V64.88H229v7.38H203.12v7.37H229V87H195.74V35.39Z" transform="translate(-0.05)"/><path class="cls-3" d="M84.2,141.26V155.9H76.85V104.61H109.9v7.33H84.2v22h25.7v7.35Z" transform="translate(-0.05)"/><path class="cls-3" d="M178,122.06v34.11h-7.28V94.69l25.47,44.78V105.36h7.28v61.53Z" transform="translate(-0.05)"/><path class="cls-3" d="M226,112.58v43.59h-7.28V112.58H206v-7.22h32.75v7.26Z" transform="translate(-0.05)"/><path class="cls-3" d="M257,156.17a25.53,25.53,0,1,1,23.72-35.26,25.09,25.09,0,0,1,1.92,9.79,25.42,25.42,0,0,1-7.63,18,24.56,24.56,0,0,1-18,7.44Zm0-7.27a18.2,18.2,0,1,0-12.86-5.32A17.5,17.5,0,0,0,257,148.9Z" transform="translate(-0.05)"/><path class="cls-3" d="M292.49,129.32v26.85h-7.28V101.91l18.2,32,18.19-32V199h-7.28V129.32l-10.91,19.22Z" transform="translate(-0.05)"/><path class="cls-3" d="M358,105.36v7.26H332.51v21.8H358v7.26H332.51v7.26H358v7.27H325.25V105.36Z" transform="translate(-0.05)"/></g></g></g></svg>