<svg xmlns="http://www.w3.org/2000/svg" viewBox="0 0 26.66 26.66"><defs><style>.cls-1{fill:#fff;}</style></defs><g id="Calque_2" data-name="Calque 2"><g id="Calque_1-2" data-name="Calque 1"><circle class="cls-1" cx="13.38" cy="13.33" r="4.44" transform="translate(-2.7 3.43) rotate(-13.28)"/><path class="cls-1" d="M18.71,0H8A8,8,0,0,0,0,8V18.71a8,8,0,0,0,8,8H18.71a8,8,0,0,0,8-7.95V8A8,8,0,0,0,18.71,0ZM13.38,20.18a6.85,6.85,0,1,1,6.85-6.85A6.85,6.85,0,0,1,13.38,20.18ZM20.5,7.81a1.6,1.6,0,1,1,1.6-1.6A1.59,1.59,0,0,1,20.5,7.81Z"/></g></g></svg>