<svg xmlns="http://www.w3.org/2000/svg" viewBox="0 0 36 25"><defs><style>.cls-1{fill:#fff;}</style></defs><g id="Calque_2" data-name="Calque 2"><g id="Calque_1-2" data-name="Calque 1"><path class="cls-1" d="M35.26,3.91A4.52,4.52,0,0,0,32.09.76C29.27,0,18,0,18,0S6.73,0,3.91.74A4.58,4.58,0,0,0,.74,3.91,46.9,46.9,0,0,0,0,12.5s0,5.82.74,8.59a4.52,4.52,0,0,0,3.17,3.15C6.76,25,18,25,18,25s11.27,0,14.09-.74a4.49,4.49,0,0,0,3.17-3.14A46.9,46.9,0,0,0,36,12.53S36,6.71,35.26,3.91ZM14,18V9l9,4.5Z"/></g></g></svg>