<svg xmlns="http://www.w3.org/2000/svg" viewBox="0 0 46 46"><defs><style>.cls-1{fill:#fff;}</style></defs><g id="Calque_2" data-name="Calque 2"><g id="Calque_1-2" data-name="Calque 1"><path class="cls-1" d="M36.57,0H9.43A9.44,9.44,0,0,0,0,9.43V36.57A9.44,9.44,0,0,0,9.43,46H36.57A9.44,9.44,0,0,0,46,36.57V9.43A9.44,9.44,0,0,0,36.57,0ZM34.41,28.39V32a3.6,3.6,0,0,1-3.59,3.6H28.57a3.6,3.6,0,0,1,0-7.19h3.14V15.17L18.78,17.4V34.68a3.6,3.6,0,0,1-3.6,3.59H12.94a3.59,3.59,0,1,1,0-7.18h3.14V10.63L34.41,7.47Z"/></g></g></svg>