<svg xmlns="http://www.w3.org/2000/svg" viewBox="0 0 47 48"><defs><style>.cls-1{fill:#fff;}</style></defs><g id="Calque_2" data-name="Calque 2"><g id="Calque_1-2" data-name="Calque 1"><path class="cls-1" d="M23.5,0A23.76,23.76,0,0,0,0,24,23.76,23.76,0,0,0,23.5,48,23.76,23.76,0,0,0,47,24,23.76,23.76,0,0,0,23.5,0ZM12.35,34H6V32h6.4Zm0-2.57H6v-2h6.4Zm0-2.58H6v-2h6.4Zm0-2.57H6v-2h6.4Zm0-2.58H6v-2h6.4ZM19.52,34h-6.4V32h6.4Zm0-2.57h-6.4v-2h6.4Zm0-2.58h-6.4v-2h6.4ZM26.7,34H20.3V32h6.4Zm0-2.57H20.3v-2h6.4Zm0-2.58H20.3v-2h6.4Zm0-2.57H20.3v-2h6.4Zm0-2.58H20.3v-2h6.4Zm0-2.57H20.3v-2h6.4Zm0-2.58H20.3v-2h6.4ZM33.88,34h-6.4V32h6.4Zm0-2.57h-6.4v-2h6.4Zm0-2.58h-6.4v-2h6.4Zm0-2.57h-6.4v-2h6.4Zm0-2.58h-6.4v-2h6.4ZM41.05,34h-6.4V32h6.4v2Zm0-2.57h-6.4v-2h6.4v2Zm0-2.58h-6.4v-2h6.4v2Zm0-2.57h-6.4v-2h6.4v2Zm0-2.58h-6.4v-2h6.4v2Zm0-2.57h-6.4v-2h6.4v2Zm0-2.58h-6.4v-2h6.4v2ZM34.65,16V14h6.4v2Z"/></g></g></svg>