<svg xmlns="http://www.w3.org/2000/svg" viewBox="0 0 51 51"><defs><style>.cls-1{fill:#fff;}</style></defs><g id="Calque_2" data-name="Calque 2"><g id="Calque_1-2" data-name="Calque 1"><path class="cls-1" d="M25.5,0A25.5,25.5,0,1,0,51,25.5,25.5,25.5,0,0,0,25.5,0ZM36.6,37a1.75,1.75,0,0,1-2.39.62c-4.58-2.67-9.87-3.11-13.51-3a33.53,33.53,0,0,0-7,.92,1.74,1.74,0,1,1-.92-3.36,36.14,36.14,0,0,1,7.73-1.05,34.55,34.55,0,0,1,7.44.54,25.12,25.12,0,0,1,8,2.93A1.76,1.76,0,0,1,36.6,37Zm3.24-6.74A2.07,2.07,0,0,1,37,31c-5.42-3.18-11.69-3.69-16-3.56a39.79,39.79,0,0,0-8.3,1.1,2.06,2.06,0,0,1-1.1-4,42.28,42.28,0,0,1,9.16-1.24,40.16,40.16,0,0,1,8.82.64,29.55,29.55,0,0,1,9.51,3.47A2.06,2.06,0,0,1,39.84,30.27Zm2-6.12a2.55,2.55,0,0,1-1.27-.34c-12.91-7.55-29.65-3.06-29.81-3A2.53,2.53,0,1,1,9.4,15.91a52.77,52.77,0,0,1,11.23-1.52,50.07,50.07,0,0,1,10.82.78,36.51,36.51,0,0,1,11.66,4.26,2.53,2.53,0,0,1-1.28,4.72Z"/></g></g></svg>