<svg xmlns="http://www.w3.org/2000/svg" xmlns:xlink="http://www.w3.org/1999/xlink" viewBox="0 0 53 37.81"><defs><style>.cls-1{fill:none;}.cls-2{clip-path:url(#clip-path);}.cls-3{fill:#fff;}</style><clipPath id="clip-path" transform="translate(0 -8.12)"><rect class="cls-1" width="53" height="54"/></clipPath></defs><g id="Calque_2" data-name="Calque 2"><g id="Calque_1-2" data-name="Calque 1"><g class="cls-2"><path class="cls-3" d="M51.91,14a6.68,6.68,0,0,0-4.67-4.76C43.09,8.12,26.5,8.12,26.5,8.12S9.91,8.12,5.76,9.23A6.86,6.86,0,0,0,1.09,14C0,18.26,0,27,0,27s0,8.8,1.09,13a6.68,6.68,0,0,0,4.67,4.76C10,45.93,26.5,45.93,26.5,45.93s16.59,0,20.74-1.11a6.7,6.7,0,0,0,4.67-4.76c1.09-4.23,1.09-13,1.09-13S53,18.26,51.91,14ZM21.22,35.12V18.93L35,27Z" transform="translate(0 -8.12)"/></g></g></g></svg>