<svg xmlns="http://www.w3.org/2000/svg" xmlns:xlink="http://www.w3.org/1999/xlink" viewBox="0 0 22 22"><defs><style>.cls-1{fill:none;}.cls-2{clip-path:url(#clip-path);}.cls-3{fill:#fff;}</style><clipPath id="clip-path" transform="translate(0 0)"><rect class="cls-1" width="22" height="22"/></clipPath></defs><g id="Calque_2" data-name="Calque 2"><g id="Calque_1-2" data-name="Calque 1"><g class="cls-2"><path class="cls-3" d="M21.46,9.7,12.31.54A1.85,1.85,0,0,0,9.69,3.16L17.54,11,9.69,18.85a1.85,1.85,0,0,0,2.62,2.61l9.15-9.15A1.85,1.85,0,0,0,21.46,9.7Zm-11-.56L3.19,1.48a1.81,1.81,0,0,0-2.64,0,2.05,2.05,0,0,0,0,2.79l5.94,6.26L.55,16.8a2,2,0,0,0,0,2.78,1.8,1.8,0,0,0,2.64,0l7.27-7.65A2.07,2.07,0,0,0,10.46,9.14Z" transform="translate(0 0)"/></g></g></g></svg>