<svg xmlns="http://www.w3.org/2000/svg" xmlns:xlink="http://www.w3.org/1999/xlink" viewBox="0 0 22 22"><defs><style>.cls-1{fill:none;}.cls-2{clip-path:url(#clip-path);}.cls-3{fill:#fff;}</style><clipPath id="clip-path" transform="translate(0 0)"><rect class="cls-1" width="22" height="22"/></clipPath></defs><g id="Calque_2" data-name="Calque 2"><g id="Calque_1-2" data-name="Calque 1"><g class="cls-2"><path class="cls-3" d="M.54,9.7,9.69.54a1.85,1.85,0,0,1,2.62,2.62L4.46,11l7.85,7.85a1.85,1.85,0,0,1-2.62,2.61L.54,12.31A1.85,1.85,0,0,1,.54,9.7Zm11-.56,7.27-7.66a1.81,1.81,0,0,1,2.64,0,2.05,2.05,0,0,1,0,2.79l-5.94,6.26,5.94,6.27a2,2,0,0,1,0,2.78,1.8,1.8,0,0,1-2.64,0l-7.27-7.65A2.05,2.05,0,0,1,11.54,9.14Z" transform="translate(0 0)"/></g></g></g></svg>