<svg xmlns="http://www.w3.org/2000/svg" viewBox="0 0 124.31 122.04"><defs><style>.cls-1{fill:#017b82;}</style></defs><g id="Calque_2" data-name="Calque 2"><g id="Calque_1-2" data-name="Calque 1"><path class="cls-1" d="M120.62,57.33a3.71,3.71,0,0,0-2.49,1l-9.85,0A46,46,0,0,0,96.54,30.2l6.56-6.56a3.69,3.69,0,0,0,2.4-6.11,3.61,3.61,0,0,0-1.19-.9,3.69,3.69,0,0,0-5.25,3.18l-6.48,6.48a46.1,46.1,0,0,0-27.7-11.35V6.17a3.7,3.7,0,0,0,.67-3.93A3.62,3.62,0,0,0,64.22.64a3.7,3.7,0,0,0-5.39,1.43,3.81,3.81,0,0,0-.34,2.05A3.61,3.61,0,0,0,59.31,6V15A46.09,46.09,0,0,0,31.38,26.61l-6.31-6.28a3.69,3.69,0,0,0-6.29-2.44,3.68,3.68,0,0,0-.86,3.85A3.7,3.7,0,0,0,21,24.16l6.42,6.41A46,46,0,0,0,16.05,58.29l-9.88,0a3.58,3.58,0,0,0-1.55-.85,3.66,3.66,0,0,0-1.77,0,3.6,3.6,0,0,0-1.58.8A3.71,3.71,0,0,0,0,61.45a3.86,3.86,0,0,0,.62,1.66A3.77,3.77,0,0,0,2,64.29,3.7,3.7,0,0,0,6,63.87l10,0A46.06,46.06,0,0,0,27.52,91.63l-6,6.06a3.7,3.7,0,0,0-1.39.35A3.66,3.66,0,0,0,19,98.9a3.71,3.71,0,0,0,0,4.91,3.54,3.54,0,0,0,1.2.9,3.48,3.48,0,0,0,1.46.35h.11A3.7,3.7,0,0,0,24.29,104a3.62,3.62,0,0,0,1.05-2.25l6.11-6.15a46.07,46.07,0,0,0,27.87,11.61V116a3.65,3.65,0,0,0-.82,1.91,3.73,3.73,0,0,0,.35,2,3.68,3.68,0,0,0,3.4,2.07,3.74,3.74,0,0,0,2-.63,3.7,3.7,0,0,0,1.32-1.61,3.64,3.64,0,0,0,.24-2.06,3.58,3.58,0,0,0-.91-1.87l0-8.69a46,46,0,0,0,28-11.58l7,7a3.66,3.66,0,0,0,.57,1.66,3.68,3.68,0,0,0,2.95,1.68,3.79,3.79,0,0,0,1.72-.35,3.72,3.72,0,0,0,1.36-1.1,3.65,3.65,0,0,0,.7-1.6,3.7,3.7,0,0,0-3.47-4.32l-6.88-6.9a46.06,46.06,0,0,0,11.5-27.82l10,0a3.63,3.63,0,0,0,1.58.76,3.58,3.58,0,0,0,1.75-.05,3.48,3.48,0,0,0,1.52-.85,3.65,3.65,0,0,0,1.15-3.19,3.55,3.55,0,0,0-.63-1.63,3.73,3.73,0,0,0-3-1.57ZM62.16,95.24A34.22,34.22,0,0,1,28,62.64l.14-.12H28c0-.48,0-1,0-1.45a34.17,34.17,0,0,1,68.23-2.81h0l0,.28c.06.84.09,1.68.09,2.53s0,1.61-.08,2.41l-.15,1.26,0,0a34.23,34.23,0,0,1-34,30.53Zm41.18-37h-2a3.3,3.3,0,0,0-1.74-.48,4.9,4.9,0,0,0-.54,0,37,37,0,0,0-8.58-20.65,3.38,3.38,0,0,0,.84-1.8L93,33.71a41.13,41.13,0,0,1,10.3,24.56ZM89.07,29.8l-1.84,1.85a3.33,3.33,0,0,0-1.48.79,37.06,37.06,0,0,0-20.41-8.33,3.48,3.48,0,0,0-.44-1.2v-3A41.08,41.08,0,0,1,89.07,29.8ZM59.33,19.89v2.73a3.54,3.54,0,0,0-.64,1.52A36.92,36.92,0,0,0,38.2,32.76a3.18,3.18,0,0,0-1.28-.62l-2-2A41.14,41.14,0,0,1,59.33,19.89ZM31,34.06l1.81,1.81a3.42,3.42,0,0,0,.72,1.65,37.06,37.06,0,0,0-8.29,20.31,3.66,3.66,0,0,0-.57,0,3.37,3.37,0,0,0-1.74.49H21A41.12,41.12,0,0,1,31,34.06ZM21,63.84h1.64a3.27,3.27,0,0,0,2.61.62,37,37,0,0,0,8.47,20.38,3.14,3.14,0,0,0-.41,1L31,88.11A41.1,41.1,0,0,1,21,63.84ZM35,92.05,37,89.94a3.24,3.24,0,0,0,1.3-.47A37,37,0,0,0,58.71,98a3.53,3.53,0,0,0,.63,1.43v2.81A41,41,0,0,1,35,92.05Zm30,10.19V99.13A3.31,3.31,0,0,0,65.32,98,36.94,36.94,0,0,0,85.9,89.55a3.23,3.23,0,0,0,1,.87,3.38,3.38,0,0,0,1.24.42l1.23,1.24A41.1,41.1,0,0,1,64.9,102.24Zm28.38-14.1-1.44-1.43A3.31,3.31,0,0,0,91,85.13c-.11-.1-.22-.2-.34-.29a37,37,0,0,0,8.47-20.37,3.53,3.53,0,0,0,.56,0,3.37,3.37,0,0,0,2-.68h1.66a41.13,41.13,0,0,1-10.06,24.3Z"/><path d="M51.6,39.76H60A10.48,10.48,0,0,1,70.45,50.23a10.06,10.06,0,0,1-3.06,7.39,10.57,10.57,0,0,1-2.18,1.7,6,6,0,0,1,1.05,3.48A6.28,6.28,0,0,1,60,69.07H51.6Zm4.19,16.75H60A6.28,6.28,0,1,0,60,44H55.79Zm0,4.19v4.19H60a2.1,2.1,0,0,0,0-4.19Z"/><path d="M65.83,75.44v7.63h-3.7V56.37H78.78v3.81h-13V71.63h0v3.81Z"/><path d="M71,64.91H51.67v4.16H71Z"/></g></g></svg>