<svg xmlns="http://www.w3.org/2000/svg" viewBox="0 0 26 27"><defs><style>.cls-1{fill:#fff;}</style></defs><g id="Calque_2" data-name="Calque 2"><g id="Calque_1-2" data-name="Calque 1"><path class="cls-1" d="M13.05,9a4.42,4.42,0,0,0-4.34,4.5A4.42,4.42,0,0,0,13.05,18a4.42,4.42,0,0,0,4.33-4.5A4.42,4.42,0,0,0,13.05,9Z"/><path class="cls-1" d="M20,0H6A6,6,0,0,0,0,6V21a6,6,0,0,0,6,6H20a6,6,0,0,0,6-6V6A6,6,0,0,0,20,0ZM13.05,20.44a6.81,6.81,0,0,1-6.68-6.93,6.81,6.81,0,0,1,6.68-6.94,6.81,6.81,0,0,1,6.68,6.93A6.82,6.82,0,0,1,13.05,20.44ZM20,7.91a1.62,1.62,0,0,1,0-3.23,1.58,1.58,0,0,1,1.55,1.61A1.58,1.58,0,0,1,20,7.91Z"/></g></g></svg>