<svg xmlns="http://www.w3.org/2000/svg" viewBox="0 0 35 19.69"><defs><style>.cls-1{fill:#fff;}</style></defs><g id="Calque_2" data-name="Calque 2"><g id="Calque_1-2" data-name="Calque 1"><path class="cls-1" d="M29.53,8.75a5.38,5.38,0,0,0-1.14.12A9.86,9.86,0,0,0,18.59,0,1.09,1.09,0,0,0,17.5,1.09v17.5a1.09,1.09,0,0,0,1.09,1.1H29.53a5.47,5.47,0,0,0,0-10.94Z"/><path class="cls-1" d="M14.22,2.19a1.09,1.09,0,0,0-1.1,1.09V18.59a1.1,1.1,0,1,0,2.19,0V3.28A1.09,1.09,0,0,0,14.22,2.19Z"/><path class="cls-1" d="M9.84,6.56a1.09,1.09,0,0,0-1.09,1.1V18.59a1.1,1.1,0,1,0,2.19,0V7.66A1.1,1.1,0,0,0,9.84,6.56Z"/><path class="cls-1" d="M5.47,6.56a1.09,1.09,0,0,0-1.09,1.1V18.59a1.09,1.09,0,1,0,2.18,0V7.66A1.09,1.09,0,0,0,5.47,6.56Z"/><path class="cls-1" d="M1.09,9.84A1.09,1.09,0,0,0,0,10.94V17.5a1.1,1.1,0,0,0,2.19,0V10.94A1.1,1.1,0,0,0,1.09,9.84Z"/></g></g></svg>